<svg xmlns="http://www.w3.org/2000/svg" xmlns:xlink="http://www.w3.org/1999/xlink" width="60" height="60" viewBox="0 0 60 60">
  <defs>
    <clipPath id="clip-icon_date">
      <rect width="60" height="60"/>
    </clipPath>
  </defs>
  <g id="icon_date" clip-path="url(#clip-icon_date)">
    <rect width="60" height="60" fill="#fff"/>
    <g id="グループ_7446" data-name="グループ 7446" transform="translate(-1 -1)">
      <g id="長方形_1381" data-name="長方形 1381" transform="translate(4 4)" fill="#fff" stroke="#cbcbcb" stroke-width="2">
        <rect width="54" height="54" rx="2" stroke="none"/>
        <rect x="1" y="1" width="52" height="52" rx="1" fill="none"/>
      </g>
      <g id="グループ_7445" data-name="グループ 7445">
        <g id="長方形_1382" data-name="長方形 1382" transform="translate(11 25)" fill="#fff" stroke="#cbcbcb" stroke-width="2">
          <rect width="40" height="10" rx="2" stroke="none"/>
          <rect x="1" y="1" width="38" height="8" rx="1" fill="none"/>
        </g>
        <g id="長方形_1386" data-name="長方形 1386" transform="translate(11 39)" fill="#fff" stroke="#cbcbcb" stroke-width="2">
          <rect width="40" height="10" rx="2" stroke="none"/>
          <rect x="1" y="1" width="38" height="8" rx="1" fill="none"/>
        </g>
        <g id="長方形_1383" data-name="長方形 1383" transform="translate(11 13)" fill="#fff" stroke="#cbcbcb" stroke-width="1">
          <rect width="21" height="2" rx="1" stroke="none"/>
          <rect x="0.5" y="0.5" width="20" height="1" rx="0.5" fill="none"/>
        </g>
        <g id="長方形_1384" data-name="長方形 1384" transform="translate(11 18)" fill="#fff" stroke="#cbcbcb" stroke-width="1">
          <rect width="11" height="2" rx="1" stroke="none"/>
          <rect x="0.5" y="0.5" width="10" height="1" rx="0.5" fill="none"/>
        </g>
        <g id="長方形_1385" data-name="長方形 1385" transform="translate(23 18)" fill="#fff" stroke="#cbcbcb" stroke-width="1">
          <rect width="28" height="2" rx="1" stroke="none"/>
          <rect x="0.5" y="0.5" width="27" height="1" rx="0.5" fill="none"/>
        </g>
      </g>
    </g>
  </g>
</svg>
