<svg xmlns="http://www.w3.org/2000/svg" xmlns:xlink="http://www.w3.org/1999/xlink" width="60" height="60" viewBox="0 0 60 60">
  <defs>
    <clipPath id="clip-Icon_phone">
      <rect width="60" height="60"/>
    </clipPath>
  </defs>
  <g id="Icon_phone" clip-path="url(#clip-Icon_phone)">
    <rect width="60" height="60" fill="#fff"/>
    <g id="グループ_7440" data-name="グループ 7440">
      <g id="smartphone" transform="translate(2.999 3)">
        <path id="パス_408" data-name="パス 408" d="M39.653,0H16.967A3.973,3.973,0,0,0,13,3.967v46.1a3.973,3.973,0,0,0,3.967,3.968H39.652a3.973,3.973,0,0,0,3.968-3.967V3.967A3.973,3.973,0,0,0,39.653,0ZM14.8,7.2H41.819V41.428H14.8Zm2.166-5.4H39.652a2.169,2.169,0,0,1,2.167,2.166V5.4H14.8V3.967A2.169,2.169,0,0,1,16.967,1.8ZM39.653,52.235H16.967A2.169,2.169,0,0,1,14.8,50.069v-6.84H41.819v6.84A2.169,2.169,0,0,1,39.653,52.235Z" transform="translate(-1.292)" fill="#cbcbcb"/>
        <path id="パス_409" data-name="パス 409" d="M29.6,49a3.6,3.6,0,1,0,3.6,3.6A3.606,3.606,0,0,0,29.6,49Zm0,5.4a1.8,1.8,0,1,1,1.8-1.8A1.8,1.8,0,0,1,29.6,54.4Z" transform="translate(-2.584 -4.871)" fill="#cbcbcb"/>
        <path id="パス_410" data-name="パス 410" d="M25.9,4.8h3.6a.9.9,0,1,0,0-1.8H25.9a.9.9,0,0,0,0,1.8Z" transform="translate(-2.485 -0.298)" fill="#cbcbcb"/>
        <path id="パス_411" data-name="パス 411" d="M32.9,4.8h.9a.9.9,0,1,0,0-1.8h-.9a.9.9,0,0,0,0,1.8Z" transform="translate(-3.181 -0.298)" fill="#cbcbcb"/>
        <path id="パス_412" data-name="パス 412" d="M56.442,4.54a.9.9,0,1,0-1.273,1.273,8.64,8.64,0,0,1,0,12.2.9.9,0,1,0,1.273,1.273A10.443,10.443,0,0,0,56.442,4.54Z" transform="translate(-5.457 -0.425)" fill="#cbcbcb"/>
        <path id="パス_413" data-name="パス 413" d="M52.231,6.816a.9.9,0,0,0-1.273,1.273,5.915,5.915,0,0,1,0,8.355.9.9,0,1,0,1.273,1.273,7.715,7.715,0,0,0,0-10.9Z" transform="translate(-5.039 -0.651)" fill="#cbcbcb"/>
        <path id="パス_414" data-name="パス 414" d="M4.325,5.813A.9.9,0,0,0,3.051,4.54a10.443,10.443,0,0,0,0,14.752.9.9,0,1,0,1.273-1.273A8.639,8.639,0,0,1,4.325,5.813Z" transform="translate(0 -0.425)" fill="#cbcbcb"/>
        <path id="パス_415" data-name="パス 415" d="M8.624,6.54a.9.9,0,0,0-1.273,0,7.715,7.715,0,0,0,0,10.9.9.9,0,1,0,1.273-1.273,5.915,5.915,0,0,1,0-8.355A.9.9,0,0,0,8.624,6.54Z" transform="translate(-0.506 -0.624)" fill="#cbcbcb"/>
      </g>
      <g id="qrcode" transform="translate(19 14.081)">
        <rect id="長方形_1130" data-name="長方形 1130" width="5" height="1" transform="translate(0 -0.081)" fill="#cbcbcb"/>
        <rect id="長方形_1131" data-name="長方形 1131" width="1" height="1" transform="translate(10 -0.081)" fill="#cbcbcb"/>
        <rect id="長方形_1132" data-name="長方形 1132" width="2" height="1" transform="translate(13 -0.081)" fill="#cbcbcb"/>
        <rect id="長方形_1133" data-name="長方形 1133" width="6" height="1" transform="translate(16 -0.081)" fill="#cbcbcb"/>
        <rect id="長方形_1134" data-name="長方形 1134" width="1" height="1" transform="translate(0 0.919)" fill="#cbcbcb"/>
        <rect id="長方形_1135" data-name="長方形 1135" width="1" height="1" transform="translate(4 0.919)" fill="#cbcbcb"/>
        <rect id="長方形_1136" data-name="長方形 1136" width="1" height="1" transform="translate(6 0.919)" fill="#cbcbcb"/>
        <rect id="長方形_1137" data-name="長方形 1137" width="1" height="1" transform="translate(7 0.919)" fill="#cbcbcb"/>
        <rect id="長方形_1138" data-name="長方形 1138" width="1" height="1" transform="translate(10 0.919)" fill="#cbcbcb"/>
        <rect id="長方形_1139" data-name="長方形 1139" width="1" height="1" transform="translate(13 0.919)" fill="#cbcbcb"/>
        <rect id="長方形_1140" data-name="長方形 1140" width="1" height="1" transform="translate(15 0.919)" fill="#cbcbcb"/>
        <rect id="長方形_1141" data-name="長方形 1141" width="1" height="1" transform="translate(16 0.919)" fill="#cbcbcb"/>
        <rect id="長方形_1142" data-name="長方形 1142" width="1" height="1" transform="translate(21 0.919)" fill="#cbcbcb"/>
        <rect id="長方形_1143" data-name="長方形 1143" width="1" height="1" transform="translate(0 1.919)" fill="#cbcbcb"/>
        <rect id="長方形_1144" data-name="長方形 1144" width="3" height="1" transform="translate(1 1.919)" fill="#cbcbcb"/>
        <rect id="長方形_1145" data-name="長方形 1145" width="1" height="1" transform="translate(4 1.919)" fill="#cbcbcb"/>
        <rect id="長方形_1146" data-name="長方形 1146" width="1" height="1" transform="translate(8 1.919)" fill="#cbcbcb"/>
        <rect id="長方形_1147" data-name="長方形 1147" width="6" height="1" transform="translate(10 1.919)" fill="#cbcbcb"/>
        <rect id="長方形_1148" data-name="長方形 1148" width="1" height="1" transform="translate(16 1.919)" fill="#cbcbcb"/>
        <rect id="長方形_1149" data-name="長方形 1149" width="2" height="1" transform="translate(18 1.919)" fill="#cbcbcb"/>
        <rect id="長方形_1150" data-name="長方形 1150" width="1" height="1" transform="translate(21 1.919)" fill="#cbcbcb"/>
        <rect id="長方形_1151" data-name="長方形 1151" width="1" height="1" transform="translate(0 2.919)" fill="#cbcbcb"/>
        <rect id="長方形_1152" data-name="長方形 1152" width="3" height="1" transform="translate(1 2.919)" fill="#cbcbcb"/>
        <rect id="長方形_1153" data-name="長方形 1153" width="1" height="1" transform="translate(4 2.919)" fill="#cbcbcb"/>
        <rect id="長方形_1154" data-name="長方形 1154" width="1" height="1" transform="translate(7 2.919)" fill="#cbcbcb"/>
        <rect id="長方形_1155" data-name="長方形 1155" width="1" height="1" transform="translate(9 2.919)" fill="#cbcbcb"/>
        <rect id="長方形_1156" data-name="長方形 1156" width="1" height="1" transform="translate(10 2.919)" fill="#cbcbcb"/>
        <rect id="長方形_1157" data-name="長方形 1157" width="1" height="1" transform="translate(12 2.919)" fill="#cbcbcb"/>
        <rect id="長方形_1158" data-name="長方形 1158" width="2" height="1" transform="translate(13 2.919)" fill="#cbcbcb"/>
        <rect id="長方形_1159" data-name="長方形 1159" width="1" height="1" transform="translate(16 2.919)" fill="#cbcbcb"/>
        <rect id="長方形_1160" data-name="長方形 1160" width="2" height="1" transform="translate(18 2.919)" fill="#cbcbcb"/>
        <rect id="長方形_1161" data-name="長方形 1161" width="1" height="1" transform="translate(21 2.919)" fill="#cbcbcb"/>
        <rect id="長方形_1162" data-name="長方形 1162" width="1" transform="translate(0 3.919)" fill="#cbcbcb"/>
        <rect id="長方形_1163" data-name="長方形 1163" width="3" transform="translate(1 3.919)" fill="#cbcbcb"/>
        <rect id="長方形_1164" data-name="長方形 1164" width="1" transform="translate(4 3.919)" fill="#cbcbcb"/>
        <rect id="長方形_1165" data-name="長方形 1165" transform="translate(7 3.919)" fill="#cbcbcb"/>
        <rect id="長方形_1166" data-name="長方形 1166" width="1" transform="translate(9 3.919)" fill="#cbcbcb"/>
        <rect id="長方形_1167" data-name="長方形 1167" width="1" transform="translate(12 3.919)" fill="#cbcbcb"/>
        <rect id="長方形_1168" data-name="長方形 1168" width="1" transform="translate(13 3.919)" fill="#cbcbcb"/>
        <rect id="長方形_1169" data-name="長方形 1169" width="1" transform="translate(16 3.919)" fill="#cbcbcb"/>
        <rect id="長方形_1170" data-name="長方形 1170" width="2" transform="translate(18 3.919)" fill="#cbcbcb"/>
        <rect id="長方形_1171" data-name="長方形 1171" width="1" transform="translate(21 3.919)" fill="#cbcbcb"/>
        <rect id="長方形_1172" data-name="長方形 1172" width="1" height="1" transform="translate(0 3.919)" fill="#cbcbcb"/>
        <rect id="長方形_1173" data-name="長方形 1173" width="1" height="1" transform="translate(4 3.919)" fill="#cbcbcb"/>
        <rect id="長方形_1174" data-name="長方形 1174" width="1" height="1" transform="translate(6 3.919)" fill="#cbcbcb"/>
        <rect id="長方形_1175" data-name="長方形 1175" width="4" height="1" transform="translate(7 3.919)" fill="#cbcbcb"/>
        <rect id="長方形_1176" data-name="長方形 1176" width="3" height="1" transform="translate(13 3.919)" fill="#cbcbcb"/>
        <rect id="長方形_1177" data-name="長方形 1177" width="1" height="1" transform="translate(16 3.919)" fill="#cbcbcb"/>
        <rect id="長方形_1178" data-name="長方形 1178" width="1" height="1" transform="translate(21 3.919)" fill="#cbcbcb"/>
        <rect id="長方形_1179" data-name="長方形 1179" width="5" height="1" transform="translate(0 4.919)" fill="#cbcbcb"/>
        <rect id="長方形_1180" data-name="長方形 1180" width="1" height="1" transform="translate(6 4.919)" fill="#cbcbcb"/>
        <rect id="長方形_1181" data-name="長方形 1181" width="1" height="1" transform="translate(7 4.919)" fill="#cbcbcb"/>
        <rect id="長方形_1182" data-name="長方形 1182" width="1" height="1" transform="translate(9 4.919)" fill="#cbcbcb"/>
        <rect id="長方形_1183" data-name="長方形 1183" width="1" height="1" transform="translate(10 4.919)" fill="#cbcbcb"/>
        <rect id="長方形_1184" data-name="長方形 1184" width="1" height="1" transform="translate(12 4.919)" fill="#cbcbcb"/>
        <rect id="長方形_1185" data-name="長方形 1185" width="1" height="1" transform="translate(13 4.919)" fill="#cbcbcb"/>
        <rect id="長方形_1186" data-name="長方形 1186" width="1" height="1" transform="translate(15 4.919)" fill="#cbcbcb"/>
        <rect id="長方形_1187" data-name="長方形 1187" width="6" height="1" transform="translate(16 4.919)" fill="#cbcbcb"/>
        <rect id="長方形_1188" data-name="長方形 1188" width="2" transform="translate(6 5.919)" fill="#cbcbcb"/>
        <rect id="長方形_1189" data-name="長方形 1189" width="4" transform="translate(10 5.919)" fill="#cbcbcb"/>
        <rect id="長方形_1190" data-name="長方形 1190" width="3" height="1" transform="translate(3 5.919)" fill="#cbcbcb"/>
        <rect id="長方形_1191" data-name="長方形 1191" height="1" transform="translate(7 5.919)" fill="#cbcbcb"/>
        <rect id="長方形_1192" data-name="長方形 1192" width="3" height="1" transform="translate(10 5.919)" fill="#cbcbcb"/>
        <rect id="長方形_1193" data-name="長方形 1193" width="1" height="1" transform="translate(13 5.919)" fill="#cbcbcb"/>
        <rect id="長方形_1194" data-name="長方形 1194" width="2" height="1" transform="translate(16 5.919)" fill="#cbcbcb"/>
        <rect id="長方形_1195" data-name="長方形 1195" width="1" height="1" transform="translate(20 5.919)" fill="#cbcbcb"/>
        <rect id="長方形_1196" data-name="長方形 1196" width="2" height="1" transform="translate(1 6.919)" fill="#cbcbcb"/>
        <rect id="長方形_1197" data-name="長方形 1197" height="1" transform="translate(4 6.919)" fill="#cbcbcb"/>
        <rect id="長方形_1198" data-name="長方形 1198" width="3" height="1" transform="translate(7 6.919)" fill="#cbcbcb"/>
        <rect id="長方形_1199" data-name="長方形 1199" width="2" height="1" transform="translate(11 6.919)" fill="#cbcbcb"/>
        <rect id="長方形_1200" data-name="長方形 1200" width="2" height="1" transform="translate(14 6.919)" fill="#cbcbcb"/>
        <rect id="長方形_1201" data-name="長方形 1201" width="2" height="1" transform="translate(16 6.919)" fill="#cbcbcb"/>
        <rect id="長方形_1202" data-name="長方形 1202" width="2" height="1" transform="translate(20 6.919)" fill="#cbcbcb"/>
        <rect id="長方形_1203" data-name="長方形 1203" width="3" height="1" transform="translate(1 7.919)" fill="#cbcbcb"/>
        <rect id="長方形_1204" data-name="長方形 1204" width="1" height="1" transform="translate(4 7.919)" fill="#cbcbcb"/>
        <rect id="長方形_1205" data-name="長方形 1205" width="1" height="1" transform="translate(6 7.919)" fill="#cbcbcb"/>
        <rect id="長方形_1206" data-name="長方形 1206" width="2" height="1" transform="translate(10 7.919)" fill="#cbcbcb"/>
        <rect id="長方形_1207" data-name="長方形 1207" height="1" transform="translate(13 7.919)" fill="#cbcbcb"/>
        <rect id="長方形_1208" data-name="長方形 1208" width="1" height="1" transform="translate(15 7.919)" fill="#cbcbcb"/>
        <rect id="長方形_1209" data-name="長方形 1209" height="1" transform="translate(18 7.919)" fill="#cbcbcb"/>
        <rect id="長方形_1210" data-name="長方形 1210" width="1" height="1" transform="translate(21 7.919)" fill="#cbcbcb"/>
        <rect id="長方形_1211" data-name="長方形 1211" width="1" transform="translate(1 8.919)" fill="#cbcbcb"/>
        <rect id="長方形_1212" data-name="長方形 1212" width="3" transform="translate(5 8.919)" fill="#cbcbcb"/>
        <rect id="長方形_1213" data-name="長方形 1213" width="1" transform="translate(10 8.919)" fill="#cbcbcb"/>
        <rect id="長方形_1214" data-name="長方形 1214" transform="translate(16 8.919)" fill="#cbcbcb"/>
        <rect id="長方形_1215" data-name="長方形 1215" width="1" transform="translate(18 8.919)" fill="#cbcbcb"/>
        <rect id="長方形_1216" data-name="長方形 1216" width="2" transform="translate(20 8.919)" fill="#cbcbcb"/>
        <rect id="長方形_1217" data-name="長方形 1217" width="1" height="1" transform="translate(1 8.919)" fill="#cbcbcb"/>
        <rect id="長方形_1218" data-name="長方形 1218" width="1" height="1" transform="translate(4 8.919)" fill="#cbcbcb"/>
        <rect id="長方形_1219" data-name="長方形 1219" width="1" height="1" transform="translate(7 8.919)" fill="#cbcbcb"/>
        <rect id="長方形_1220" data-name="長方形 1220" width="2" height="1" transform="translate(10 8.919)" fill="#cbcbcb"/>
        <rect id="長方形_1221" data-name="長方形 1221" width="1" height="1" transform="translate(14 8.919)" fill="#cbcbcb"/>
        <rect id="長方形_1222" data-name="長方形 1222" width="1" height="1" transform="translate(17 8.919)" fill="#cbcbcb"/>
        <rect id="長方形_1223" data-name="長方形 1223" width="1" height="1" transform="translate(18 8.919)" fill="#cbcbcb"/>
        <rect id="長方形_1224" data-name="長方形 1224" width="1" height="1" transform="translate(21 8.919)" fill="#cbcbcb"/>
        <rect id="長方形_1225" data-name="長方形 1225" width="2" height="1" transform="translate(2 9.919)" fill="#cbcbcb"/>
        <rect id="長方形_1226" data-name="長方形 1226" width="1" height="1" transform="translate(5 9.919)" fill="#cbcbcb"/>
        <rect id="長方形_1227" data-name="長方形 1227" height="1" transform="translate(7 9.919)" fill="#cbcbcb"/>
        <rect id="長方形_1228" data-name="長方形 1228" width="1" height="1" transform="translate(9 9.919)" fill="#cbcbcb"/>
        <rect id="長方形_1229" data-name="長方形 1229" width="2" height="1" transform="translate(11 9.919)" fill="#cbcbcb"/>
        <rect id="長方形_1230" data-name="長方形 1230" width="1" height="1" transform="translate(16 9.919)" fill="#cbcbcb"/>
        <rect id="長方形_1231" data-name="長方形 1231" height="1" transform="translate(18 9.919)" fill="#cbcbcb"/>
        <rect id="長方形_1232" data-name="長方形 1232" width="1" height="1" transform="translate(19 9.919)" fill="#cbcbcb"/>
        <rect id="長方形_1233" data-name="長方形 1233" width="1" height="1" transform="translate(21 9.919)" fill="#cbcbcb"/>
        <rect id="長方形_1234" data-name="長方形 1234" height="1" transform="translate(1 10.919)" fill="#cbcbcb"/>
        <rect id="長方形_1235" data-name="長方形 1235" width="2" height="1" transform="translate(2 10.919)" fill="#cbcbcb"/>
        <rect id="長方形_1236" data-name="長方形 1236" width="1" height="1" transform="translate(4 10.919)" fill="#cbcbcb"/>
        <rect id="長方形_1237" data-name="長方形 1237" width="1" height="1" transform="translate(6 10.919)" fill="#cbcbcb"/>
        <rect id="長方形_1238" data-name="長方形 1238" width="1" height="1" transform="translate(8 10.919)" fill="#cbcbcb"/>
        <rect id="長方形_1239" data-name="長方形 1239" width="1" height="1" transform="translate(11 10.919)" fill="#cbcbcb"/>
        <rect id="長方形_1240" data-name="長方形 1240" height="1" transform="translate(13 10.919)" fill="#cbcbcb"/>
        <rect id="長方形_1241" data-name="長方形 1241" width="1" height="1" transform="translate(15 10.919)" fill="#cbcbcb"/>
        <rect id="長方形_1242" data-name="長方形 1242" height="1" transform="translate(18 10.919)" fill="#cbcbcb"/>
        <rect id="長方形_1243" data-name="長方形 1243" width="1" height="1" transform="translate(21 10.919)" fill="#cbcbcb"/>
        <rect id="長方形_1244" data-name="長方形 1244" width="2" transform="translate(1 11.919)" fill="#cbcbcb"/>
        <rect id="長方形_1245" data-name="長方形 1245" transform="translate(4 11.919)" fill="#cbcbcb"/>
        <rect id="長方形_1246" data-name="長方形 1246" width="3" transform="translate(6 11.919)" fill="#cbcbcb"/>
        <rect id="長方形_1247" data-name="長方形 1247" width="1" transform="translate(12 11.919)" fill="#cbcbcb"/>
        <rect id="長方形_1248" data-name="長方形 1248" width="1" transform="translate(15 11.919)" fill="#cbcbcb"/>
        <rect id="長方形_1249" data-name="長方形 1249" width="2" transform="translate(16 11.919)" fill="#cbcbcb"/>
        <rect id="長方形_1250" data-name="長方形 1250" width="1" transform="translate(18 11.919)" fill="#cbcbcb"/>
        <rect id="長方形_1251" data-name="長方形 1251" width="2" transform="translate(20 11.919)" fill="#cbcbcb"/>
        <rect id="長方形_1252" data-name="長方形 1252" width="5" height="1" transform="translate(2 11.919)" fill="#cbcbcb"/>
        <rect id="長方形_1253" data-name="長方形 1253" width="1" height="1" transform="translate(7 11.919)" fill="#cbcbcb"/>
        <rect id="長方形_1254" data-name="長方形 1254" width="2" height="1" transform="translate(9 11.919)" fill="#cbcbcb"/>
        <rect id="長方形_1255" data-name="長方形 1255" width="1" height="1" transform="translate(12 11.919)" fill="#cbcbcb"/>
        <rect id="長方形_1256" data-name="長方形 1256" width="2" height="1" transform="translate(14 11.919)" fill="#cbcbcb"/>
        <rect id="長方形_1257" data-name="長方形 1257" width="1" height="1" transform="translate(0 12.919)" fill="#cbcbcb"/>
        <rect id="長方形_1258" data-name="長方形 1258" width="1" height="1" transform="translate(3 12.919)" fill="#cbcbcb"/>
        <rect id="長方形_1259" data-name="長方形 1259" width="1" height="1" transform="translate(5 12.919)" fill="#cbcbcb"/>
        <rect id="長方形_1260" data-name="長方形 1260" width="1" height="1" transform="translate(7 12.919)" fill="#cbcbcb"/>
        <rect id="長方形_1261" data-name="長方形 1261" width="1" height="1" transform="translate(9 12.919)" fill="#cbcbcb"/>
        <rect id="長方形_1262" data-name="長方形 1262" width="1" height="1" transform="translate(10 12.919)" fill="#cbcbcb"/>
        <rect id="長方形_1263" data-name="長方形 1263" width="1" height="1" transform="translate(12 12.919)" fill="#cbcbcb"/>
        <rect id="長方形_1264" data-name="長方形 1264" width="1" height="1" transform="translate(14 12.919)" fill="#cbcbcb"/>
        <rect id="長方形_1265" data-name="長方形 1265" width="2" height="1" transform="translate(16 12.919)" fill="#cbcbcb"/>
        <rect id="長方形_1266" data-name="長方形 1266" width="1" height="1" transform="translate(19 12.919)" fill="#cbcbcb"/>
        <rect id="長方形_1267" data-name="長方形 1267" width="1" height="1" transform="translate(21 12.919)" fill="#cbcbcb"/>
        <rect id="長方形_1268" data-name="長方形 1268" width="1" height="1" transform="translate(2 13.919)" fill="#cbcbcb"/>
        <rect id="長方形_1269" data-name="長方形 1269" width="1" height="1" transform="translate(4 13.919)" fill="#cbcbcb"/>
        <rect id="長方形_1270" data-name="長方形 1270" width="1" height="1" transform="translate(7 13.919)" fill="#cbcbcb"/>
        <rect id="長方形_1271" data-name="長方形 1271" width="1" height="1" transform="translate(9 13.919)" fill="#cbcbcb"/>
        <rect id="長方形_1272" data-name="長方形 1272" width="1" height="1" transform="translate(11 13.919)" fill="#cbcbcb"/>
        <rect id="長方形_1273" data-name="長方形 1273" width="2" height="1" transform="translate(13 13.919)" fill="#cbcbcb"/>
        <rect id="長方形_1274" data-name="長方形 1274" width="1" height="1" transform="translate(18 13.919)" fill="#cbcbcb"/>
        <rect id="長方形_1275" data-name="長方形 1275" width="1" height="1" transform="translate(21 13.919)" fill="#cbcbcb"/>
        <rect id="長方形_1276" data-name="長方形 1276" width="1" transform="translate(1 14.919)" fill="#cbcbcb"/>
        <rect id="長方形_1277" data-name="長方形 1277" width="1" transform="translate(3 14.919)" fill="#cbcbcb"/>
        <rect id="長方形_1278" data-name="長方形 1278" width="1" transform="translate(5 14.919)" fill="#cbcbcb"/>
        <rect id="長方形_1279" data-name="長方形 1279" transform="translate(7 14.919)" fill="#cbcbcb"/>
        <rect id="長方形_1280" data-name="長方形 1280" width="1" transform="translate(11 14.919)" fill="#cbcbcb"/>
        <rect id="長方形_1281" data-name="長方形 1281" width="3" transform="translate(13 14.919)" fill="#cbcbcb"/>
        <rect id="長方形_1282" data-name="長方形 1282" width="1" transform="translate(17 14.919)" fill="#cbcbcb"/>
        <rect id="長方形_1283" data-name="長方形 1283" width="2" transform="translate(20 14.919)" fill="#cbcbcb"/>
        <rect id="長方形_1284" data-name="長方形 1284" width="1" height="1" transform="translate(0 14.919)" fill="#cbcbcb"/>
        <rect id="長方形_1285" data-name="長方形 1285" width="2" height="1" transform="translate(4 14.919)" fill="#cbcbcb"/>
        <rect id="長方形_1286" data-name="長方形 1286" width="3" height="1" transform="translate(7 14.919)" fill="#cbcbcb"/>
        <rect id="長方形_1287" data-name="長方形 1287" width="1" height="1" transform="translate(12 14.919)" fill="#cbcbcb"/>
        <rect id="長方形_1288" data-name="長方形 1288" width="1" height="1" transform="translate(13 14.919)" fill="#cbcbcb"/>
        <rect id="長方形_1289" data-name="長方形 1289" width="4" height="1" transform="translate(15 14.919)" fill="#cbcbcb"/>
        <rect id="長方形_1290" data-name="長方形 1290" width="1" height="1" transform="translate(20 14.919)" fill="#cbcbcb"/>
        <rect id="長方形_1291" data-name="長方形 1291" width="1" height="1" transform="translate(6 15.919)" fill="#cbcbcb"/>
        <rect id="長方形_1292" data-name="長方形 1292" width="1" height="1" transform="translate(9 15.919)" fill="#cbcbcb"/>
        <rect id="長方形_1293" data-name="長方形 1293" width="5" height="1" transform="translate(11 15.919)" fill="#cbcbcb"/>
        <rect id="長方形_1294" data-name="長方形 1294" height="1" transform="translate(18 15.919)" fill="#cbcbcb"/>
        <rect id="長方形_1295" data-name="長方形 1295" width="3" height="1" transform="translate(19 15.919)" fill="#cbcbcb"/>
        <rect id="長方形_1296" data-name="長方形 1296" width="5" height="1" transform="translate(0 16.919)" fill="#cbcbcb"/>
        <rect id="長方形_1297" data-name="長方形 1297" width="1" height="1" transform="translate(6 16.919)" fill="#cbcbcb"/>
        <rect id="長方形_1298" data-name="長方形 1298" width="1" height="1" transform="translate(8 16.919)" fill="#cbcbcb"/>
        <rect id="長方形_1299" data-name="長方形 1299" width="3" height="1" transform="translate(10 16.919)" fill="#cbcbcb"/>
        <rect id="長方形_1300" data-name="長方形 1300" width="2" height="1" transform="translate(14 16.919)" fill="#cbcbcb"/>
        <rect id="長方形_1301" data-name="長方形 1301" width="1" height="1" transform="translate(16 16.919)" fill="#cbcbcb"/>
        <rect id="長方形_1302" data-name="長方形 1302" height="1" transform="translate(18 16.919)" fill="#cbcbcb"/>
        <rect id="長方形_1303" data-name="長方形 1303" width="1" height="1" transform="translate(21 16.919)" fill="#cbcbcb"/>
        <rect id="長方形_1304" data-name="長方形 1304" width="1" transform="translate(0 17.919)" fill="#cbcbcb"/>
        <rect id="長方形_1305" data-name="長方形 1305" width="1" transform="translate(4 17.919)" fill="#cbcbcb"/>
        <rect id="長方形_1306" data-name="長方形 1306" width="1" transform="translate(6 17.919)" fill="#cbcbcb"/>
        <rect id="長方形_1307" data-name="長方形 1307" transform="translate(10 17.919)" fill="#cbcbcb"/>
        <rect id="長方形_1308" data-name="長方形 1308" width="1" transform="translate(11 17.919)" fill="#cbcbcb"/>
        <rect id="長方形_1309" data-name="長方形 1309" transform="translate(13 17.919)" fill="#cbcbcb"/>
        <rect id="長方形_1310" data-name="長方形 1310" width="2" transform="translate(14 17.919)" fill="#cbcbcb"/>
        <rect id="長方形_1311" data-name="長方形 1311" width="1" transform="translate(18 17.919)" fill="#cbcbcb"/>
        <rect id="長方形_1312" data-name="長方形 1312" width="1" transform="translate(21 17.919)" fill="#cbcbcb"/>
        <rect id="長方形_1313" data-name="長方形 1313" width="1" height="1" transform="translate(0 17.919)" fill="#cbcbcb"/>
        <rect id="長方形_1314" data-name="長方形 1314" width="3" height="1" transform="translate(1 17.919)" fill="#cbcbcb"/>
        <rect id="長方形_1315" data-name="長方形 1315" width="1" height="1" transform="translate(4 17.919)" fill="#cbcbcb"/>
        <rect id="長方形_1316" data-name="長方形 1316" width="1" height="1" transform="translate(6 17.919)" fill="#cbcbcb"/>
        <rect id="長方形_1317" data-name="長方形 1317" width="9" height="1" transform="translate(9 17.919)" fill="#cbcbcb"/>
        <rect id="長方形_1318" data-name="長方形 1318" width="2" height="1" transform="translate(20 17.919)" fill="#cbcbcb"/>
        <rect id="長方形_1319" data-name="長方形 1319" width="1" height="1" transform="translate(0 18.919)" fill="#cbcbcb"/>
        <rect id="長方形_1320" data-name="長方形 1320" width="3" height="1" transform="translate(1 18.919)" fill="#cbcbcb"/>
        <rect id="長方形_1321" data-name="長方形 1321" width="1" height="1" transform="translate(4 18.919)" fill="#cbcbcb"/>
        <rect id="長方形_1322" data-name="長方形 1322" width="2" height="1" transform="translate(8 18.919)" fill="#cbcbcb"/>
        <rect id="長方形_1323" data-name="長方形 1323" width="1" height="1" transform="translate(11 18.919)" fill="#cbcbcb"/>
        <rect id="長方形_1324" data-name="長方形 1324" width="1" height="1" transform="translate(13 18.919)" fill="#cbcbcb"/>
        <rect id="長方形_1325" data-name="長方形 1325" width="1" height="1" transform="translate(17 18.919)" fill="#cbcbcb"/>
        <rect id="長方形_1326" data-name="長方形 1326" width="1" height="1" transform="translate(20 18.919)" fill="#cbcbcb"/>
        <rect id="長方形_1327" data-name="長方形 1327" width="1" height="1" transform="translate(0 19.919)" fill="#cbcbcb"/>
        <rect id="長方形_1328" data-name="長方形 1328" width="3" height="1" transform="translate(1 19.919)" fill="#cbcbcb"/>
        <rect id="長方形_1329" data-name="長方形 1329" width="1" height="1" transform="translate(4 19.919)" fill="#cbcbcb"/>
        <rect id="長方形_1330" data-name="長方形 1330" height="1" transform="translate(7 19.919)" fill="#cbcbcb"/>
        <rect id="長方形_1331" data-name="長方形 1331" width="1" height="1" transform="translate(8 19.919)" fill="#cbcbcb"/>
        <rect id="長方形_1332" data-name="長方形 1332" width="1" height="1" transform="translate(10 19.919)" fill="#cbcbcb"/>
        <rect id="長方形_1333" data-name="長方形 1333" width="2" height="1" transform="translate(14 19.919)" fill="#cbcbcb"/>
        <rect id="長方形_1334" data-name="長方形 1334" width="3" height="1" transform="translate(19 19.919)" fill="#cbcbcb"/>
        <rect id="長方形_1335" data-name="長方形 1335" width="1" transform="translate(0 20.919)" fill="#cbcbcb"/>
        <rect id="長方形_1336" data-name="長方形 1336" width="1" transform="translate(4 20.919)" fill="#cbcbcb"/>
        <rect id="長方形_1337" data-name="長方形 1337" width="3" transform="translate(7 20.919)" fill="#cbcbcb"/>
        <rect id="長方形_1338" data-name="長方形 1338" width="2" transform="translate(10 20.919)" fill="#cbcbcb"/>
        <rect id="長方形_1339" data-name="長方形 1339" width="1" transform="translate(13 20.919)" fill="#cbcbcb"/>
        <rect id="長方形_1340" data-name="長方形 1340" width="1" transform="translate(17 20.919)" fill="#cbcbcb"/>
        <rect id="長方形_1341" data-name="長方形 1341" width="1" transform="translate(18 20.919)" fill="#cbcbcb"/>
        <rect id="長方形_1342" data-name="長方形 1342" width="2" transform="translate(20 20.919)" fill="#cbcbcb"/>
        <rect id="長方形_1343" data-name="長方形 1343" width="5" height="1" transform="translate(0 20.919)" fill="#cbcbcb"/>
        <rect id="長方形_1344" data-name="長方形 1344" width="3" height="1" transform="translate(7 20.919)" fill="#cbcbcb"/>
        <rect id="長方形_1345" data-name="長方形 1345" width="4" height="1" transform="translate(13 20.919)" fill="#cbcbcb"/>
        <rect id="長方形_1346" data-name="長方形 1346" width="1" height="1" transform="translate(18 20.919)" fill="#cbcbcb"/>
        <rect id="長方形_1347" data-name="長方形 1347" width="1" height="1" transform="translate(20 20.919)" fill="#cbcbcb"/>
      </g>
    </g>
  </g>
</svg>
