<svg id="レイヤー_1" data-name="レイヤー 1" xmlns="http://www.w3.org/2000/svg" viewBox="0 0 640 640"><defs><style>.cls-1{fill:#253f68;}</style></defs><title>アートボード 1</title><path class="cls-1" d="M1.6,372.2q10.65,0,14.51-4.92C18.69,364,20,357.92,20,349V229.71a35.74,35.74,0,0,0-1.33-10.92,10,10,0,0,0-5.59-6q-4.26-2-13-2,0-6.12,2.4-9.85Q9,201,21.31,198t16.78-6.13q5.85,1.88,5.86,10.66V349c0,8.89,1.15,15,3.46,18.25s6.39,4.92,12.25,4.92A41.39,41.39,0,0,1,61,383.66q-13.85-.81-30.09-.8-17.32,0-30.63.8A39.66,39.66,0,0,1,1.6,372.2Z"/><path class="cls-1" d="M193.23,358.62a9.1,9.1,0,0,1,2.26,4.53q-9.06,11.72-20.64,16.91t-26.77,5.19q-18.37,0-31-8.39a52,52,0,0,1-19-22.77,78.5,78.5,0,0,1-6.39-32.22,73.25,73.25,0,0,1,6.79-31.7,56.88,56.88,0,0,1,19.31-23q12.51-8.65,29-8.66,24.24,0,36.09,15t13.71,40.09a21.09,21.09,0,0,1-4,9.05q-46.87,0-74.57,1.33,1.32,20.52,10.25,33.43t28.36,12.92a40.88,40.88,0,0,0,17.58-4,44.22,44.22,0,0,0,14.92-11.45A17.84,17.84,0,0,1,193.23,358.62Zm-67-78.3q-7.45,9.06-8.52,30.36h51.13q0-17.83-6.52-28.63t-18-10.78Q133.7,271.27,126.24,280.32Z"/><path class="cls-1" d="M330.12,358.62a8.93,8.93,0,0,1,2.26,4.53q-9,11.72-20.64,16.91T285,385.25q-18.37,0-31-8.39a52,52,0,0,1-19-22.77,78.5,78.5,0,0,1-6.39-32.22,73.26,73.26,0,0,1,6.8-31.7,56.86,56.86,0,0,1,19.3-23q12.52-8.65,29-8.66,24.24,0,36.09,15t13.72,40.09a21,21,0,0,1-4,9.05q-46.87,0-74.57,1.33,1.34,20.52,10.25,33.43t28.37,12.92a40.91,40.91,0,0,0,17.58-4A44.18,44.18,0,0,0,326,354.89,17.44,17.44,0,0,1,330.12,358.62Zm-67-78.3q-7.47,9.06-8.53,30.36h51.14q0-17.83-6.52-28.63t-18-10.78Q270.6,271.27,263.14,280.32Z"/><path class="cls-1" d="M461.43,356.36a9.45,9.45,0,0,0,4.66,6c2.3,1.24,5.86,2,10.65,2.39a37.79,37.79,0,0,1-1.6,12.26,79.51,79.51,0,0,0-14.78,2.8,73.22,73.22,0,0,0-14.25,5.45,9,9,0,0,1-4.79-4.92q-1.6-3.6-1.6-10.79a66.42,66.42,0,0,1,.27-6.92,34.45,34.45,0,0,1-9.33,13.05q-10.38,9-28.23,9.05-16.51,0-25.43-7.46t-8.92-20.77q0-15.71,11.45-25.17a69.38,69.38,0,0,1,25.57-13.45,235,235,0,0,1,31.16-6.4q0-16.23-1.07-22.5a22.26,22.26,0,0,0-4.53-10.52,20.17,20.17,0,0,0-16.51-8q-12,0-17.44,9.86a47.46,47.46,0,0,0-6,21,63.8,63.8,0,0,1-7.72-.53,24.52,24.52,0,0,1-6.12-1.34q.25-2.65.26-9.06a106.59,106.59,0,0,0-1.6-20,107.24,107.24,0,0,1,22.91-8.78,88.79,88.79,0,0,1,22.37-3.2q18.1,0,28.23,10.12,6.39,6.39,8.79,16.91t2.4,29.16V344C460.23,349.48,460.63,353.6,461.43,356.36Zm-25.17-34A164.85,164.85,0,0,0,415,326.26a33.38,33.38,0,0,0-14.78,8.26q-6.27,6-6.26,16.64,0,9.33,4.53,14.12a15.07,15.07,0,0,0,11.45,4.79,22,22,0,0,0,12.38-4q6-4,10-12.52t4-21Z"/><path class="cls-1" d="M551.58,381.52v26.64q0,11.44,2.39,17.45t7.33,8.25q4.92,2.26,14,2.8,1.34,3.72,1.33,11.45-12.24-.8-33.55-.8-24.78,0-35.16.8,0-7.73,1.33-11.45,10.65-.54,14.51-5.2t3.87-18V296.3a31.71,31.71,0,0,0-1.47-10.79,10.54,10.54,0,0,0-5.72-5.86q-4.27-2-12.79-2.26c0-4.09.8-7.36,2.4-9.85a109,109,0,0,0,18.91-3.2,78.25,78.25,0,0,0,16.78-5.86q5.85,1.86,5.86,11.72a34.54,34.54,0,0,1-.94,8.12q-.93,3.85-3.06,11.05a124.45,124.45,0,0,1,6.13-11.19Q558,271,568,264.74a41,41,0,0,1,22.23-6.26q24,0,36.89,14.11T640,315.2a76.67,76.67,0,0,1-8.26,35.7,62.21,62.21,0,0,1-23.43,25.17q-15.18,9.18-34.63,9.18A69.42,69.42,0,0,1,551.58,381.52ZM561,287.78q-9.45,12.51-9.45,38.35v37.55a39.85,39.85,0,0,0,10.52,6.93A32,32,0,0,0,575,373a37.9,37.9,0,0,0,17.58-4.53q8.79-4.52,14.92-16.11t6.13-31.29q0-20.79-8.39-33.29T583.8,275.26Q570.48,275.26,561,287.78Z"/></svg>