<svg xmlns="http://www.w3.org/2000/svg" xmlns:xlink="http://www.w3.org/1999/xlink" width="207" height="30" viewBox="0 0 207 30">
  <defs>
    <clipPath id="clip-pudo_logo">
      <rect width="207" height="30"/>
    </clipPath>
  </defs>
  <g id="pudo_logo" clip-path="url(#clip-pudo_logo)">
    <g id="グループ_6369" data-name="グループ 6369" transform="translate(53 -0.075)">
      <path id="パス_354" data-name="パス 354" d="M10.456,11.6H0v8.784H0V39.272H6.143v-10.1h4.313l.951-.053h0a8.791,8.791,0,0,0,7.833-8.731h0a8.791,8.791,0,0,0-7.833-8.731m-1.2,11.741H6.073V17.251H10.21a3.074,3.074,0,0,1,0,6.143Z" transform="translate(0 -9.496)" fill="#231a17"/>
      <path id="パス_355" data-name="パス 355" d="M141.485,3.723l1.866,2.271a.271.271,0,0,1-.211.44h-1.655V19.672h0a11.246,11.246,0,0,1-11.143,10.28h0A11.26,11.26,0,0,1,119.2,19.672h0V1.945h6.214v16.6a4.97,4.97,0,0,0,4.929,5h0a4.959,4.959,0,0,0,4.929-5V6.416h-1.725a.271.271,0,0,1-.211-.44l1.936-2.341,1.391-1.69L138.123.167a.268.268,0,0,1,.4,0l1.461,1.778Z" transform="translate(-98.217)" fill="#70b735"/>
      <path id="パス_356" data-name="パス 356" d="M279.4,11.87V11.8H266.9V39.4h12.5v-.07A13.615,13.615,0,0,0,291.3,25.6,13.588,13.588,0,0,0,279.4,11.87ZM279.24,33.5v.035h-5.756V17.662h5.756V17.7c3.081.4,5.492,3.785,5.492,7.9S282.32,33.1,279.24,33.5Z" transform="translate(-219.918 -9.661)" fill="#231a17"/>
      <path id="パス_357" data-name="パス 357" d="M418.462,22.838l4.876,5.4a.255.255,0,0,0,.37,0l4.876-5.4a.254.254,0,0,0-.194-.422h-1.707a14.18,14.18,0,1,0-.106,3.908l-2.869,3.327a.3.3,0,0,1-.458,0l-3.01-3.5a7.88,7.88,0,1,1,.123-3.732h-1.707A.251.251,0,0,0,418.462,22.838Z" transform="translate(-328.352 -8.096)" fill="#70b735"/>
    </g>
  </g>
</svg>
