<svg xmlns="http://www.w3.org/2000/svg" xmlns:xlink="http://www.w3.org/1999/xlink" width="60" height="60" viewBox="0 0 60 60">
  <defs>
    <clipPath id="clip-icon_send">
      <rect width="60" height="60"/>
    </clipPath>
  </defs>
  <g id="icon_send" clip-path="url(#clip-icon_send)">
    <rect width="60" height="60" fill="#fff"/>
    <g id="グループ_6730" data-name="グループ 6730" transform="translate(-8869 -3871)">
      <path id="パス_417" data-name="パス 417" d="M22.4,150.125l-5.178-.079a1.06,1.06,0,0,1-.967-.84l-1.185-7.535a1.676,1.676,0,0,0-.493-1.009,2.263,2.263,0,0,0-1.95-.967l-6.538.285a2.408,2.408,0,0,0-2.28,2.382l.005,15.665c0,.038,0,.074.005.111,0,.019,0,.037,0,.056,0,.827-.048,2.2-.1,3.067l-.213,3.764a9.771,9.771,0,0,1-.672,2.792l-2.647,5.99a2.07,2.07,0,0,0,.012,1.75,2.07,2.07,0,0,0,1.377,1.081l.252.063a2.474,2.474,0,0,0,.6.072,2.788,2.788,0,0,0,2.472-1.5l2.473-5.041A18.184,18.184,0,0,0,8.5,167.108l1.4-5.841,3.407,5.21a7.336,7.336,0,0,1,.936,2.6l.656,5.81a2.559,2.559,0,0,0,2.482,2.217h.37a2.144,2.144,0,0,0,2.151-2.383l-.7-7.047a14.868,14.868,0,0,0-.77-3.255l-3.286-8.583-.019-1.692,7.467-.276a2.28,2.28,0,0,0,1.625-.719,1.636,1.636,0,0,0,.427-1.222A2.168,2.168,0,0,0,22.4,150.125Zm-5.022,26.253Z" transform="translate(8887 3748.866)" fill="#cbcbcb"/>
      <path id="パス_418" data-name="パス 418" d="M22.69,63.992a5.579,5.579,0,0,0,5.559-6.013l1.406-.159a2.512,2.512,0,0,0,1.952-1.534l.442-1.208a1.387,1.387,0,0,0-.123-1.287,1.329,1.329,0,0,0-1.116-.544c-.054,0-.11,0-.168.008l-4.94.47A5.575,5.575,0,1,0,22.69,63.992Z" transform="translate(8872.36 3823.161)" fill="#cbcbcb"/>
      <path id="パス_419" data-name="パス 419" d="M130.81,125.272a2.307,2.307,0,0,0-2.269-2.113l-9.328.016a2.059,2.059,0,0,0-2.065,2.218l.474,6.808a2.306,2.306,0,0,0,2.265,2.113l9.332-.016a2.059,2.059,0,0,0,2.066-2.218Zm-10.924,8.319Z" transform="translate(8786.796 3763.009)" fill="#cbcbcb"/>
    </g>
  </g>
</svg>
