<svg xmlns="http://www.w3.org/2000/svg" xmlns:xlink="http://www.w3.org/1999/xlink" width="60" height="60" viewBox="0 0 60 60">
  <defs>
    <clipPath id="clip-icon_qr">
      <rect width="60" height="60"/>
    </clipPath>
  </defs>
  <g id="icon_qr" clip-path="url(#clip-icon_qr)">
    <rect width="60" height="60" fill="#fff"/>
    <g id="qrcode" transform="translate(5 4.592)">
      <rect id="長方形_1130" data-name="長方形 1130" width="12" height="1" transform="translate(0 0.408)" fill="#cbcbcb"/>
      <rect id="長方形_1131" data-name="長方形 1131" width="2" height="1" transform="translate(24 0.408)" fill="#cbcbcb"/>
      <rect id="長方形_1132" data-name="長方形 1132" width="4" height="1" transform="translate(31 0.408)" fill="#cbcbcb"/>
      <rect id="長方形_1133" data-name="長方形 1133" width="12" height="1" transform="translate(38 0.408)" fill="#cbcbcb"/>
      <rect id="長方形_1134" data-name="長方形 1134" width="2" height="2" transform="translate(0 1.408)" fill="#cbcbcb"/>
      <rect id="長方形_1135" data-name="長方形 1135" width="2" height="2" transform="translate(10 1.408)" fill="#cbcbcb"/>
      <rect id="長方形_1136" data-name="長方形 1136" width="2" height="2" transform="translate(14 1.408)" fill="#cbcbcb"/>
      <rect id="長方形_1137" data-name="長方形 1137" width="2" height="2" transform="translate(17 1.408)" fill="#cbcbcb"/>
      <rect id="長方形_1138" data-name="長方形 1138" width="2" height="2" transform="translate(24 1.408)" fill="#cbcbcb"/>
      <rect id="長方形_1139" data-name="長方形 1139" width="2" height="2" transform="translate(31 1.408)" fill="#cbcbcb"/>
      <rect id="長方形_1140" data-name="長方形 1140" width="2" height="2" transform="translate(35 1.408)" fill="#cbcbcb"/>
      <rect id="長方形_1141" data-name="長方形 1141" width="2" height="2" transform="translate(38 1.408)" fill="#cbcbcb"/>
      <rect id="長方形_1142" data-name="長方形 1142" width="1" height="2" transform="translate(49 1.408)" fill="#cbcbcb"/>
      <rect id="長方形_1143" data-name="長方形 1143" width="2" height="2" transform="translate(0 3.408)" fill="#cbcbcb"/>
      <rect id="長方形_1144" data-name="長方形 1144" width="6" height="2" transform="translate(3 3.408)" fill="#cbcbcb"/>
      <rect id="長方形_1145" data-name="長方形 1145" width="2" height="2" transform="translate(10 3.408)" fill="#cbcbcb"/>
      <rect id="長方形_1146" data-name="長方形 1146" width="2" height="2" transform="translate(19 3.408)" fill="#cbcbcb"/>
      <rect id="長方形_1147" data-name="長方形 1147" width="13" height="2" transform="translate(24 3.408)" fill="#cbcbcb"/>
      <rect id="長方形_1148" data-name="長方形 1148" width="2" height="2" transform="translate(38 3.408)" fill="#cbcbcb"/>
      <rect id="長方形_1149" data-name="長方形 1149" width="5" height="2" transform="translate(42 3.408)" fill="#cbcbcb"/>
      <rect id="長方形_1150" data-name="長方形 1150" width="1" height="2" transform="translate(49 3.408)" fill="#cbcbcb"/>
      <rect id="長方形_1151" data-name="長方形 1151" width="2" height="2" transform="translate(0 5.408)" fill="#cbcbcb"/>
      <rect id="長方形_1152" data-name="長方形 1152" width="6" height="2" transform="translate(3 5.408)" fill="#cbcbcb"/>
      <rect id="長方形_1153" data-name="長方形 1153" width="2" height="2" transform="translate(10 5.408)" fill="#cbcbcb"/>
      <rect id="長方形_1154" data-name="長方形 1154" width="3" height="2" transform="translate(16 5.408)" fill="#cbcbcb"/>
      <rect id="長方形_1155" data-name="長方形 1155" width="2" height="2" transform="translate(21 5.408)" fill="#cbcbcb"/>
      <rect id="長方形_1156" data-name="長方形 1156" width="2" height="2" transform="translate(24 5.408)" fill="#cbcbcb"/>
      <rect id="長方形_1157" data-name="長方形 1157" width="2" height="2" transform="translate(28 5.408)" fill="#cbcbcb"/>
      <rect id="長方形_1158" data-name="長方形 1158" width="4" height="2" transform="translate(31 5.408)" fill="#cbcbcb"/>
      <rect id="長方形_1159" data-name="長方形 1159" width="2" height="2" transform="translate(38 5.408)" fill="#cbcbcb"/>
      <rect id="長方形_1160" data-name="長方形 1160" width="5" height="2" transform="translate(42 5.408)" fill="#cbcbcb"/>
      <rect id="長方形_1161" data-name="長方形 1161" width="1" height="2" transform="translate(49 5.408)" fill="#cbcbcb"/>
      <rect id="長方形_1162" data-name="長方形 1162" width="2" height="1" transform="translate(0 7.408)" fill="#cbcbcb"/>
      <rect id="長方形_1163" data-name="長方形 1163" width="6" height="1" transform="translate(3 7.408)" fill="#cbcbcb"/>
      <rect id="長方形_1164" data-name="長方形 1164" width="2" height="1" transform="translate(10 7.408)" fill="#cbcbcb"/>
      <rect id="長方形_1165" data-name="長方形 1165" width="1" height="1" transform="translate(16 7.408)" fill="#cbcbcb"/>
      <rect id="長方形_1166" data-name="長方形 1166" width="2" height="1" transform="translate(21 7.408)" fill="#cbcbcb"/>
      <rect id="長方形_1167" data-name="長方形 1167" width="2" height="1" transform="translate(28 7.408)" fill="#cbcbcb"/>
      <rect id="長方形_1168" data-name="長方形 1168" width="2" height="1" transform="translate(31 7.408)" fill="#cbcbcb"/>
      <rect id="長方形_1169" data-name="長方形 1169" width="2" height="1" transform="translate(38 7.408)" fill="#cbcbcb"/>
      <rect id="長方形_1170" data-name="長方形 1170" width="5" height="1" transform="translate(42 7.408)" fill="#cbcbcb"/>
      <rect id="長方形_1171" data-name="長方形 1171" width="1" height="1" transform="translate(49 7.408)" fill="#cbcbcb"/>
      <rect id="長方形_1172" data-name="長方形 1172" width="2" height="2" transform="translate(0 8.408)" fill="#cbcbcb"/>
      <rect id="長方形_1173" data-name="長方形 1173" width="2" height="2" transform="translate(10 8.408)" fill="#cbcbcb"/>
      <rect id="長方形_1174" data-name="長方形 1174" width="2" height="2" transform="translate(14 8.408)" fill="#cbcbcb"/>
      <rect id="長方形_1175" data-name="長方形 1175" width="9" height="2" transform="translate(17 8.408)" fill="#cbcbcb"/>
      <rect id="長方形_1176" data-name="長方形 1176" width="6" height="2" transform="translate(31 8.408)" fill="#cbcbcb"/>
      <rect id="長方形_1177" data-name="長方形 1177" width="2" height="2" transform="translate(38 8.408)" fill="#cbcbcb"/>
      <rect id="長方形_1178" data-name="長方形 1178" width="1" height="2" transform="translate(49 8.408)" fill="#cbcbcb"/>
      <rect id="長方形_1179" data-name="長方形 1179" width="12" height="2" transform="translate(0 10.408)" fill="#cbcbcb"/>
      <rect id="長方形_1180" data-name="長方形 1180" width="2" height="2" transform="translate(14 10.408)" fill="#cbcbcb"/>
      <rect id="長方形_1181" data-name="長方形 1181" width="2" height="2" transform="translate(17 10.408)" fill="#cbcbcb"/>
      <rect id="長方形_1182" data-name="長方形 1182" width="2" height="2" transform="translate(21 10.408)" fill="#cbcbcb"/>
      <rect id="長方形_1183" data-name="長方形 1183" width="2" height="2" transform="translate(24 10.408)" fill="#cbcbcb"/>
      <rect id="長方形_1184" data-name="長方形 1184" width="2" height="2" transform="translate(28 10.408)" fill="#cbcbcb"/>
      <rect id="長方形_1185" data-name="長方形 1185" width="2" height="2" transform="translate(31 10.408)" fill="#cbcbcb"/>
      <rect id="長方形_1186" data-name="長方形 1186" width="2" height="2" transform="translate(35 10.408)" fill="#cbcbcb"/>
      <rect id="長方形_1187" data-name="長方形 1187" width="12" height="2" transform="translate(38 10.408)" fill="#cbcbcb"/>
      <rect id="長方形_1188" data-name="長方形 1188" width="5" height="1" transform="translate(14 12.408)" fill="#cbcbcb"/>
      <rect id="長方形_1189" data-name="長方形 1189" width="10" height="1" transform="translate(23 12.408)" fill="#cbcbcb"/>
      <rect id="長方形_1190" data-name="長方形 1190" width="7" height="2" transform="translate(7 13.408)" fill="#cbcbcb"/>
      <rect id="長方形_1191" data-name="長方形 1191" width="1" height="2" transform="translate(16 13.408)" fill="#cbcbcb"/>
      <rect id="長方形_1192" data-name="長方形 1192" width="7" height="2" transform="translate(23 13.408)" fill="#cbcbcb"/>
      <rect id="長方形_1193" data-name="長方形 1193" width="2" height="2" transform="translate(31 13.408)" fill="#cbcbcb"/>
      <rect id="長方形_1194" data-name="長方形 1194" width="4" height="2" transform="translate(38 13.408)" fill="#cbcbcb"/>
      <rect id="長方形_1195" data-name="長方形 1195" width="2" height="2" transform="translate(47 13.408)" fill="#cbcbcb"/>
      <rect id="長方形_1196" data-name="長方形 1196" width="5" height="2" transform="translate(2 15.408)" fill="#cbcbcb"/>
      <rect id="長方形_1197" data-name="長方形 1197" width="1" height="2" transform="translate(9 15.408)" fill="#cbcbcb"/>
      <rect id="長方形_1198" data-name="長方形 1198" width="7" height="2" transform="translate(17 15.408)" fill="#cbcbcb"/>
      <rect id="長方形_1199" data-name="長方形 1199" width="4" height="2" transform="translate(26 15.408)" fill="#cbcbcb"/>
      <rect id="長方形_1200" data-name="長方形 1200" width="4" height="2" transform="translate(33 15.408)" fill="#cbcbcb"/>
      <rect id="長方形_1201" data-name="長方形 1201" width="5" height="2" transform="translate(38 15.408)" fill="#cbcbcb"/>
      <rect id="長方形_1202" data-name="長方形 1202" width="3" height="2" transform="translate(47 15.408)" fill="#cbcbcb"/>
      <rect id="長方形_1203" data-name="長方形 1203" width="6" height="2" transform="translate(3 17.408)" fill="#cbcbcb"/>
      <rect id="長方形_1204" data-name="長方形 1204" width="2" height="2" transform="translate(10 17.408)" fill="#cbcbcb"/>
      <rect id="長方形_1205" data-name="長方形 1205" width="3" height="2" transform="translate(14 17.408)" fill="#cbcbcb"/>
      <rect id="長方形_1206" data-name="長方形 1206" width="5" height="2" transform="translate(23 17.408)" fill="#cbcbcb"/>
      <rect id="長方形_1207" data-name="長方形 1207" width="1" height="2" transform="translate(30 17.408)" fill="#cbcbcb"/>
      <rect id="長方形_1208" data-name="長方形 1208" width="3" height="2" transform="translate(35 17.408)" fill="#cbcbcb"/>
      <rect id="長方形_1209" data-name="長方形 1209" width="1" height="2" transform="translate(42 17.408)" fill="#cbcbcb"/>
      <rect id="長方形_1210" data-name="長方形 1210" width="1" height="2" transform="translate(49 17.408)" fill="#cbcbcb"/>
      <rect id="長方形_1211" data-name="長方形 1211" width="2" height="1" transform="translate(3 19.408)" fill="#cbcbcb"/>
      <rect id="長方形_1212" data-name="長方形 1212" width="7" height="1" transform="translate(12 19.408)" fill="#cbcbcb"/>
      <rect id="長方形_1213" data-name="長方形 1213" width="2" height="1" transform="translate(24 19.408)" fill="#cbcbcb"/>
      <rect id="長方形_1214" data-name="長方形 1214" width="1" height="1" transform="translate(37 19.408)" fill="#cbcbcb"/>
      <rect id="長方形_1215" data-name="長方形 1215" width="3" height="1" transform="translate(42 19.408)" fill="#cbcbcb"/>
      <rect id="長方形_1216" data-name="長方形 1216" width="3" height="1" transform="translate(47 19.408)" fill="#cbcbcb"/>
      <rect id="長方形_1217" data-name="長方形 1217" width="2" height="2" transform="translate(3 20.408)" fill="#cbcbcb"/>
      <rect id="長方形_1218" data-name="長方形 1218" width="3" height="2" transform="translate(9 20.408)" fill="#cbcbcb"/>
      <rect id="長方形_1219" data-name="長方形 1219" width="3" height="2" transform="translate(16 20.408)" fill="#cbcbcb"/>
      <rect id="長方形_1220" data-name="長方形 1220" width="4" height="2" transform="translate(24 20.408)" fill="#cbcbcb"/>
      <rect id="長方形_1221" data-name="長方形 1221" width="2" height="2" transform="translate(33 20.408)" fill="#cbcbcb"/>
      <rect id="長方形_1222" data-name="長方形 1222" width="2" height="2" transform="translate(40 20.408)" fill="#cbcbcb"/>
      <rect id="長方形_1223" data-name="長方形 1223" width="2" height="2" transform="translate(43 20.408)" fill="#cbcbcb"/>
      <rect id="長方形_1224" data-name="長方形 1224" width="1" height="2" transform="translate(49 20.408)" fill="#cbcbcb"/>
      <rect id="長方形_1225" data-name="長方形 1225" width="5" height="2" transform="translate(5 22.408)" fill="#cbcbcb"/>
      <rect id="長方形_1226" data-name="長方形 1226" width="2" height="2" transform="translate(12 22.408)" fill="#cbcbcb"/>
      <rect id="長方形_1227" data-name="長方形 1227" width="1" height="2" transform="translate(16 22.408)" fill="#cbcbcb"/>
      <rect id="長方形_1228" data-name="長方形 1228" width="3" height="2" transform="translate(21 22.408)" fill="#cbcbcb"/>
      <rect id="長方形_1229" data-name="長方形 1229" width="4" height="2" transform="translate(26 22.408)" fill="#cbcbcb"/>
      <rect id="長方形_1230" data-name="長方形 1230" width="2" height="2" transform="translate(38 22.408)" fill="#cbcbcb"/>
      <rect id="長方形_1231" data-name="長方形 1231" width="1" height="2" transform="translate(42 22.408)" fill="#cbcbcb"/>
      <rect id="長方形_1232" data-name="長方形 1232" width="2" height="2" transform="translate(45 22.408)" fill="#cbcbcb"/>
      <rect id="長方形_1233" data-name="長方形 1233" width="1" height="2" transform="translate(49 22.408)" fill="#cbcbcb"/>
      <rect id="長方形_1234" data-name="長方形 1234" width="1" height="2" transform="translate(2 24.408)" fill="#cbcbcb"/>
      <rect id="長方形_1235" data-name="長方形 1235" width="4" height="2" transform="translate(5 24.408)" fill="#cbcbcb"/>
      <rect id="長方形_1236" data-name="長方形 1236" width="2" height="2" transform="translate(10 24.408)" fill="#cbcbcb"/>
      <rect id="長方形_1237" data-name="長方形 1237" width="3" height="2" transform="translate(14 24.408)" fill="#cbcbcb"/>
      <rect id="長方形_1238" data-name="長方形 1238" width="2" height="2" transform="translate(19 24.408)" fill="#cbcbcb"/>
      <rect id="長方形_1239" data-name="長方形 1239" width="2" height="2" transform="translate(26 24.408)" fill="#cbcbcb"/>
      <rect id="長方形_1240" data-name="長方形 1240" width="1" height="2" transform="translate(30 24.408)" fill="#cbcbcb"/>
      <rect id="長方形_1241" data-name="長方形 1241" width="2" height="2" transform="translate(35 24.408)" fill="#cbcbcb"/>
      <rect id="長方形_1242" data-name="長方形 1242" width="1" height="2" transform="translate(42 24.408)" fill="#cbcbcb"/>
      <rect id="長方形_1243" data-name="長方形 1243" width="1" height="2" transform="translate(49 24.408)" fill="#cbcbcb"/>
      <rect id="長方形_1244" data-name="長方形 1244" width="4" height="1" transform="translate(3 26.408)" fill="#cbcbcb"/>
      <rect id="長方形_1245" data-name="長方形 1245" width="1" height="1" transform="translate(9 26.408)" fill="#cbcbcb"/>
      <rect id="長方形_1246" data-name="長方形 1246" width="7" height="1" transform="translate(14 26.408)" fill="#cbcbcb"/>
      <rect id="長方形_1247" data-name="長方形 1247" width="2" height="1" transform="translate(28 26.408)" fill="#cbcbcb"/>
      <rect id="長方形_1248" data-name="長方形 1248" width="2" height="1" transform="translate(35 26.408)" fill="#cbcbcb"/>
      <rect id="長方形_1249" data-name="長方形 1249" width="4" height="1" transform="translate(38 26.408)" fill="#cbcbcb"/>
      <rect id="長方形_1250" data-name="長方形 1250" width="2" height="1" transform="translate(43 26.408)" fill="#cbcbcb"/>
      <rect id="長方形_1251" data-name="長方形 1251" width="3" height="1" transform="translate(47 26.408)" fill="#cbcbcb"/>
      <rect id="長方形_1252" data-name="長方形 1252" width="11" height="2" transform="translate(5 27.408)" fill="#cbcbcb"/>
      <rect id="長方形_1253" data-name="長方形 1253" width="2" height="2" transform="translate(17 27.408)" fill="#cbcbcb"/>
      <rect id="長方形_1254" data-name="長方形 1254" width="5" height="2" transform="translate(21 27.408)" fill="#cbcbcb"/>
      <rect id="長方形_1255" data-name="長方形 1255" width="2" height="2" transform="translate(28 27.408)" fill="#cbcbcb"/>
      <rect id="長方形_1256" data-name="長方形 1256" width="4" height="2" transform="translate(33 27.408)" fill="#cbcbcb"/>
      <rect id="長方形_1257" data-name="長方形 1257" width="3" height="2" transform="translate(0 29.408)" fill="#cbcbcb"/>
      <rect id="長方形_1258" data-name="長方形 1258" width="2" height="2" transform="translate(7 29.408)" fill="#cbcbcb"/>
      <rect id="長方形_1259" data-name="長方形 1259" width="2" height="2" transform="translate(12 29.408)" fill="#cbcbcb"/>
      <rect id="長方形_1260" data-name="長方形 1260" width="3" height="2" transform="translate(16 29.408)" fill="#cbcbcb"/>
      <rect id="長方形_1261" data-name="長方形 1261" width="2" height="2" transform="translate(21 29.408)" fill="#cbcbcb"/>
      <rect id="長方形_1262" data-name="長方形 1262" width="2" height="2" transform="translate(24 29.408)" fill="#cbcbcb"/>
      <rect id="長方形_1263" data-name="長方形 1263" width="2" height="2" transform="translate(28 29.408)" fill="#cbcbcb"/>
      <rect id="長方形_1264" data-name="長方形 1264" width="2" height="2" transform="translate(33 29.408)" fill="#cbcbcb"/>
      <rect id="長方形_1265" data-name="長方形 1265" width="5" height="2" transform="translate(38 29.408)" fill="#cbcbcb"/>
      <rect id="長方形_1266" data-name="長方形 1266" width="2" height="2" transform="translate(45 29.408)" fill="#cbcbcb"/>
      <rect id="長方形_1267" data-name="長方形 1267" width="1" height="2" transform="translate(49 29.408)" fill="#cbcbcb"/>
      <rect id="長方形_1268" data-name="長方形 1268" width="2" height="2" transform="translate(5 31.408)" fill="#cbcbcb"/>
      <rect id="長方形_1269" data-name="長方形 1269" width="3" height="2" transform="translate(9 31.408)" fill="#cbcbcb"/>
      <rect id="長方形_1270" data-name="長方形 1270" width="3" height="2" transform="translate(16 31.408)" fill="#cbcbcb"/>
      <rect id="長方形_1271" data-name="長方形 1271" width="3" height="2" transform="translate(21 31.408)" fill="#cbcbcb"/>
      <rect id="長方形_1272" data-name="長方形 1272" width="2" height="2" transform="translate(26 31.408)" fill="#cbcbcb"/>
      <rect id="長方形_1273" data-name="長方形 1273" width="4" height="2" transform="translate(31 31.408)" fill="#cbcbcb"/>
      <rect id="長方形_1274" data-name="長方形 1274" width="3" height="2" transform="translate(42 31.408)" fill="#cbcbcb"/>
      <rect id="長方形_1275" data-name="長方形 1275" width="1" height="2" transform="translate(49 31.408)" fill="#cbcbcb"/>
      <rect id="長方形_1276" data-name="長方形 1276" width="2" height="1" transform="translate(3 33.408)" fill="#cbcbcb"/>
      <rect id="長方形_1277" data-name="長方形 1277" width="2" height="1" transform="translate(7 33.408)" fill="#cbcbcb"/>
      <rect id="長方形_1278" data-name="長方形 1278" width="2" height="1" transform="translate(12 33.408)" fill="#cbcbcb"/>
      <rect id="長方形_1279" data-name="長方形 1279" width="1" height="1" transform="translate(16 33.408)" fill="#cbcbcb"/>
      <rect id="長方形_1280" data-name="長方形 1280" width="2" height="1" transform="translate(26 33.408)" fill="#cbcbcb"/>
      <rect id="長方形_1281" data-name="長方形 1281" width="6" height="1" transform="translate(31 33.408)" fill="#cbcbcb"/>
      <rect id="長方形_1282" data-name="長方形 1282" width="2" height="1" transform="translate(40 33.408)" fill="#cbcbcb"/>
      <rect id="長方形_1283" data-name="長方形 1283" width="3" height="1" transform="translate(47 33.408)" fill="#cbcbcb"/>
      <rect id="長方形_1284" data-name="長方形 1284" width="3" height="2" transform="translate(0 34.408)" fill="#cbcbcb"/>
      <rect id="長方形_1285" data-name="長方形 1285" width="5" height="2" transform="translate(9 34.408)" fill="#cbcbcb"/>
      <rect id="長方形_1286" data-name="長方形 1286" width="7" height="2" transform="translate(16 34.408)" fill="#cbcbcb"/>
      <rect id="長方形_1287" data-name="長方形 1287" width="2" height="2" transform="translate(28 34.408)" fill="#cbcbcb"/>
      <rect id="長方形_1288" data-name="長方形 1288" width="2" height="2" transform="translate(31 34.408)" fill="#cbcbcb"/>
      <rect id="長方形_1289" data-name="長方形 1289" width="10" height="2" transform="translate(35 34.408)" fill="#cbcbcb"/>
      <rect id="長方形_1290" data-name="長方形 1290" width="2" height="2" transform="translate(47 34.408)" fill="#cbcbcb"/>
      <rect id="長方形_1291" data-name="長方形 1291" width="3" height="2" transform="translate(14 36.408)" fill="#cbcbcb"/>
      <rect id="長方形_1292" data-name="長方形 1292" width="3" height="2" transform="translate(21 36.408)" fill="#cbcbcb"/>
      <rect id="長方形_1293" data-name="長方形 1293" width="11" height="2" transform="translate(26 36.408)" fill="#cbcbcb"/>
      <rect id="長方形_1294" data-name="長方形 1294" width="1" height="2" transform="translate(42 36.408)" fill="#cbcbcb"/>
      <rect id="長方形_1295" data-name="長方形 1295" width="5" height="2" transform="translate(45 36.408)" fill="#cbcbcb"/>
      <rect id="長方形_1296" data-name="長方形 1296" width="12" height="2" transform="translate(0 38.408)" fill="#cbcbcb"/>
      <rect id="長方形_1297" data-name="長方形 1297" width="2" height="2" transform="translate(14 38.408)" fill="#cbcbcb"/>
      <rect id="長方形_1298" data-name="長方形 1298" width="2" height="2" transform="translate(19 38.408)" fill="#cbcbcb"/>
      <rect id="長方形_1299" data-name="長方形 1299" width="7" height="2" transform="translate(23 38.408)" fill="#cbcbcb"/>
      <rect id="長方形_1300" data-name="長方形 1300" width="4" height="2" transform="translate(33 38.408)" fill="#cbcbcb"/>
      <rect id="長方形_1301" data-name="長方形 1301" width="2" height="2" transform="translate(38 38.408)" fill="#cbcbcb"/>
      <rect id="長方形_1302" data-name="長方形 1302" width="1" height="2" transform="translate(42 38.408)" fill="#cbcbcb"/>
      <rect id="長方形_1303" data-name="長方形 1303" width="1" height="2" transform="translate(49 38.408)" fill="#cbcbcb"/>
      <rect id="長方形_1304" data-name="長方形 1304" width="2" height="1" transform="translate(0 40.408)" fill="#cbcbcb"/>
      <rect id="長方形_1305" data-name="長方形 1305" width="2" height="1" transform="translate(10 40.408)" fill="#cbcbcb"/>
      <rect id="長方形_1306" data-name="長方形 1306" width="3" height="1" transform="translate(14 40.408)" fill="#cbcbcb"/>
      <rect id="長方形_1307" data-name="長方形 1307" width="1" height="1" transform="translate(23 40.408)" fill="#cbcbcb"/>
      <rect id="長方形_1308" data-name="長方形 1308" width="2" height="1" transform="translate(26 40.408)" fill="#cbcbcb"/>
      <rect id="長方形_1309" data-name="長方形 1309" width="1" height="1" transform="translate(30 40.408)" fill="#cbcbcb"/>
      <rect id="長方形_1310" data-name="長方形 1310" width="4" height="1" transform="translate(33 40.408)" fill="#cbcbcb"/>
      <rect id="長方形_1311" data-name="長方形 1311" width="3" height="1" transform="translate(42 40.408)" fill="#cbcbcb"/>
      <rect id="長方形_1312" data-name="長方形 1312" width="1" height="1" transform="translate(49 40.408)" fill="#cbcbcb"/>
      <rect id="長方形_1313" data-name="長方形 1313" width="2" height="2" transform="translate(0 41.408)" fill="#cbcbcb"/>
      <rect id="長方形_1314" data-name="長方形 1314" width="6" height="2" transform="translate(3 41.408)" fill="#cbcbcb"/>
      <rect id="長方形_1315" data-name="長方形 1315" width="2" height="2" transform="translate(10 41.408)" fill="#cbcbcb"/>
      <rect id="長方形_1316" data-name="長方形 1316" width="2" height="2" transform="translate(14 41.408)" fill="#cbcbcb"/>
      <rect id="長方形_1317" data-name="長方形 1317" width="22" height="2" transform="translate(21 41.408)" fill="#cbcbcb"/>
      <rect id="長方形_1318" data-name="長方形 1318" width="3" height="2" transform="translate(47 41.408)" fill="#cbcbcb"/>
      <rect id="長方形_1319" data-name="長方形 1319" width="2" height="2" transform="translate(0 43.408)" fill="#cbcbcb"/>
      <rect id="長方形_1320" data-name="長方形 1320" width="6" height="2" transform="translate(3 43.408)" fill="#cbcbcb"/>
      <rect id="長方形_1321" data-name="長方形 1321" width="2" height="2" transform="translate(10 43.408)" fill="#cbcbcb"/>
      <rect id="長方形_1322" data-name="長方形 1322" width="4" height="2" transform="translate(19 43.408)" fill="#cbcbcb"/>
      <rect id="長方形_1323" data-name="長方形 1323" width="2" height="2" transform="translate(26 43.408)" fill="#cbcbcb"/>
      <rect id="長方形_1324" data-name="長方形 1324" width="2" height="2" transform="translate(31 43.408)" fill="#cbcbcb"/>
      <rect id="長方形_1325" data-name="長方形 1325" width="2" height="2" transform="translate(40 43.408)" fill="#cbcbcb"/>
      <rect id="長方形_1326" data-name="長方形 1326" width="2" height="2" transform="translate(47 43.408)" fill="#cbcbcb"/>
      <rect id="長方形_1327" data-name="長方形 1327" width="2" height="2" transform="translate(0 45.408)" fill="#cbcbcb"/>
      <rect id="長方形_1328" data-name="長方形 1328" width="6" height="2" transform="translate(3 45.408)" fill="#cbcbcb"/>
      <rect id="長方形_1329" data-name="長方形 1329" width="2" height="2" transform="translate(10 45.408)" fill="#cbcbcb"/>
      <rect id="長方形_1330" data-name="長方形 1330" width="1" height="2" transform="translate(16 45.408)" fill="#cbcbcb"/>
      <rect id="長方形_1331" data-name="長方形 1331" width="2" height="2" transform="translate(19 45.408)" fill="#cbcbcb"/>
      <rect id="長方形_1332" data-name="長方形 1332" width="2" height="2" transform="translate(24 45.408)" fill="#cbcbcb"/>
      <rect id="長方形_1333" data-name="長方形 1333" width="5" height="2" transform="translate(33 45.408)" fill="#cbcbcb"/>
      <rect id="長方形_1334" data-name="長方形 1334" width="5" height="2" transform="translate(45 45.408)" fill="#cbcbcb"/>
      <rect id="長方形_1335" data-name="長方形 1335" width="2" height="1" transform="translate(0 47.408)" fill="#cbcbcb"/>
      <rect id="長方形_1336" data-name="長方形 1336" width="2" height="1" transform="translate(10 47.408)" fill="#cbcbcb"/>
      <rect id="長方形_1337" data-name="長方形 1337" width="7" height="1" transform="translate(16 47.408)" fill="#cbcbcb"/>
      <rect id="長方形_1338" data-name="長方形 1338" width="4" height="1" transform="translate(24 47.408)" fill="#cbcbcb"/>
      <rect id="長方形_1339" data-name="長方形 1339" width="2" height="1" transform="translate(31 47.408)" fill="#cbcbcb"/>
      <rect id="長方形_1340" data-name="長方形 1340" width="2" height="1" transform="translate(40 47.408)" fill="#cbcbcb"/>
      <rect id="長方形_1341" data-name="長方形 1341" width="2" height="1" transform="translate(43 47.408)" fill="#cbcbcb"/>
      <rect id="長方形_1342" data-name="長方形 1342" width="3" height="1" transform="translate(47 47.408)" fill="#cbcbcb"/>
      <rect id="長方形_1343" data-name="長方形 1343" width="12" height="2" transform="translate(0 48.408)" fill="#cbcbcb"/>
      <rect id="長方形_1344" data-name="長方形 1344" width="7" height="2" transform="translate(16 48.408)" fill="#cbcbcb"/>
      <rect id="長方形_1345" data-name="長方形 1345" width="9" height="2" transform="translate(31 48.408)" fill="#cbcbcb"/>
      <rect id="長方形_1346" data-name="長方形 1346" width="3" height="2" transform="translate(42 48.408)" fill="#cbcbcb"/>
      <rect id="長方形_1347" data-name="長方形 1347" width="2" height="2" transform="translate(47 48.408)" fill="#cbcbcb"/>
    </g>
  </g>
</svg>
