<svg xmlns="http://www.w3.org/2000/svg" xmlns:xlink="http://www.w3.org/1999/xlink" width="60" height="60" viewBox="0 0 60 60">
  <defs>
    <clipPath id="clip-icon_box">
      <rect width="60" height="60"/>
    </clipPath>
  </defs>
  <g id="icon_box" clip-path="url(#clip-icon_box)">
    <rect width="60" height="60" fill="#fff"/>
    <g id="Package" transform="translate(1 1)">
      <path id="パス_389" data-name="パス 389" d="M56.127,12.09,29.681,2.059a.906.906,0,0,0-.646,0L2.589,12.09A.912.912,0,0,0,2,12.943V45.773a.912.912,0,0,0,.585.852L29.031,56.783a.912.912,0,0,0,.65,0L56.128,46.716a.912.912,0,0,0,.588-.852V12.943a.912.912,0,0,0-.589-.853Zm-26.769-8.2,23.875,9.056L29.358,22l-7.253-2.751,11.351-4.3a.912.912,0,0,0,0-1.705l-6.8-2.581a.912.912,0,0,0-.647,0l-13.27,5.031L5.483,12.943Zm-15.5,14.182,4.56,1.733V33.422l-4.56-1.746Zm1.452-1.4L26.33,12.487l4.23,1.6-11.027,4.18Zm-11.483-2.4,8.207,3.113V32.3a.912.912,0,0,0,.586.852L19,35.6a.912.912,0,0,0,1.237-.852V20.49L28.446,23.6v31L3.824,45.146ZM30.27,54.608V23.6l24.622-9.338V45.236Z" transform="translate(0 0)" fill="#cbcbcb"/>
      <path id="パス_390" data-name="パス 390" d="M42.057,50.013,36.572,52.1a.912.912,0,0,0,.324,1.765.9.9,0,0,0,.325-.06L42.7,51.718a.912.912,0,1,0-.648-1.7Z" transform="translate(-2.993 -4.223)" fill="#cbcbcb"/>
      <path id="パス_391" data-name="パス 391" d="M48.4,47.731l-1.836.7a.912.912,0,0,0,.324,1.765.9.9,0,0,0,.325-.06l1.836-.7a.912.912,0,1,0-.648-1.7Z" transform="translate(-3.873 -4.022)" fill="#cbcbcb"/>
      <path id="パス_392" data-name="パス 392" d="M42.057,46.013,36.572,48.1a.912.912,0,0,0,.324,1.765.9.9,0,0,0,.325-.06L42.7,47.718a.912.912,0,1,0-.648-1.7Z" transform="translate(-2.993 -3.871)" fill="#cbcbcb"/>
      <path id="パス_393" data-name="パス 393" d="M48.4,43.731l-1.836.7a.912.912,0,0,0,.324,1.765.9.9,0,0,0,.325-.06l1.836-.7a.912.912,0,1,0-.648-1.7Z" transform="translate(-3.873 -3.67)" fill="#cbcbcb"/>
      <path id="パス_394" data-name="パス 394" d="M42.057,42.013,36.572,44.1a.912.912,0,0,0,.324,1.765.9.9,0,0,0,.325-.06L42.7,43.718a.912.912,0,1,0-.648-1.7Z" transform="translate(-2.993 -3.519)" fill="#cbcbcb"/>
      <path id="パス_395" data-name="パス 395" d="M48.4,39.731l-1.836.7a.912.912,0,0,0,.324,1.765.9.9,0,0,0,.325-.06l1.836-.7a.912.912,0,1,0-.648-1.7Z" transform="translate(-3.873 -3.318)" fill="#cbcbcb"/>
    </g>
  </g>
</svg>
