<svg width="399" height="352" viewBox="0 0 399 352" fill="none" xmlns="http://www.w3.org/2000/svg">
<g clip-path="url(#clip0_2_393)">
<path d="M240.1 5.22998C235 12.95 229.687 20.5267 224.16 27.96C222.04 30.82 219.8 33.73 216.69 35.44C213.964 36.7922 210.963 37.5003 207.92 37.51C196.87 38 185.92 34.31 176.61 28.29C167.3 22.27 159.68 14 153.27 5" stroke="#465156" stroke-width="10" stroke-linecap="round" stroke-linejoin="round"/>
<path d="M205.1 38.8C195.42 51.92 184.39 67.21 174.71 80.33L153.5 58.8C149.813 55.3052 146.486 51.4492 143.57 47.2899C135.96 35.6199 135.25 20.75 129.21 8.19995C130.1 8.79995 114.1 40.8 114.1 40.8C113.46 45.22 139.1 98.8 139.1 98.8L150.1 74.8" stroke="#465156" stroke-width="10" stroke-linecap="round" stroke-linejoin="round"/>
<path d="M189.1 62.7999C191.51 72.4999 200.69 91.0999 203.1 100.8C202.53 100.61 237.1 28.7999 237.1 29.2899L232.2 17.6799" stroke="#465156" stroke-width="10" stroke-linecap="round" stroke-linejoin="round"/>
<path d="M178.1 75.8C178.1 75.8 160.49 99.6701 159.59 101.95C158.794 104.273 158.33 106.697 158.21 109.15C156.876 123.357 155.543 137.573 154.21 151.8C148.21 215.41 142.21 279.14 142.45 343.03" stroke="#465156" stroke-width="10" stroke-linecap="round" stroke-linejoin="round"/>
<path d="M5.82989 229.46C3.57989 229.19 6.5699 201.72 7.0599 199.46L27.7599 104.97C28.6199 101.03 29.5499 96.97 31.9599 93.71C34.3699 90.45 38.0899 88.37 41.6599 86.38C68.1899 71.51 89.7599 58.99 114.1 40.76" stroke="#465156" stroke-width="10" stroke-linecap="round" stroke-linejoin="round"/>
<path d="M238.1 28.8C264.552 37.5132 290.023 48.9618 314.1 62.9601C320.22 66.5201 326.4 70.38 330.6 76.08C334.53 81.39 356.98 129.75 367.07 164.81" stroke="#465156" stroke-width="10" stroke-linecap="round" stroke-linejoin="round"/>
<path d="M377.1 195.8C376.57 195.61 390.1 252.18 393.7 283.66C393.99 286.15 394.15 288.78 393.1 291.05C392.05 293.32 389.99 294.89 388 296.37C375.65 305.56 367 315.08 354.68 324.27" stroke="#465156" stroke-width="10" stroke-linecap="round" stroke-linejoin="round"/>
<path d="M297.2 283.7C306.6 279.64 327.63 265.7 327.63 265.7C327.63 265.7 354.68 293.87 354.53 294.62C354.25 295.95 356.61 296.49 357.07 297.77C357.433 299.194 357.406 300.69 356.99 302.1C355.31 310.24 353.367 318.32 351.16 326.34C350.423 329.417 349.353 332.405 347.97 335.25C346.472 338.041 344.424 340.499 341.949 342.476C339.473 344.453 336.623 345.907 333.57 346.75" stroke="#465156" stroke-width="10" stroke-linecap="round" stroke-linejoin="round"/>
<path d="M310.73 291.59C314.92 294.51 324.42 305.75 324.25 307.37C323.72 312.64 323.66 325.76 323.13 331.03" stroke="#465156" stroke-width="10" stroke-linecap="round" stroke-linejoin="round"/>
<path d="M290.44 324.27C294.84 327.75 303.97 341.18 317.44 345.68" stroke="#465156" stroke-width="10" stroke-linecap="round" stroke-linejoin="round"/>
<path d="M340.78 259.23C348.533 265.77 356.363 272.213 364.27 278.56C368.292 272.599 370.939 265.819 372.02 258.71C366.09 257.45 366.22 255.25 360.31 256.65" stroke="#465156" stroke-width="10" stroke-linecap="round" stroke-linejoin="round"/>
<path d="M296.87 283.67L207.94 288.94C205.309 288.961 202.698 289.393 200.2 290.22C196.96 291.5 194.41 294.05 192.02 296.59C185.865 303.103 180.073 309.95 174.67 317.1C178.104 326.278 182.288 335.158 187.18 343.65L205.73 345.24" stroke="#465156" stroke-width="10" stroke-linecap="round" stroke-linejoin="round"/>
<path d="M215.87 344.49V330.14C215.759 329.229 215.998 328.31 216.54 327.57C216.918 327.281 217.35 327.072 217.81 326.953C218.27 326.835 218.75 326.81 219.22 326.88L238.82 327.19C242.076 327.387 245.343 327.135 248.53 326.44C252.19 325.44 255.44 323.3 259.05 322.17C264.13 320.58 269.6 321.07 274.89 321.58L317.98 325.73" stroke="#465156" stroke-width="10" stroke-linecap="round" stroke-linejoin="round"/>
<path d="M180.3 334.52C170.82 333.61 165.53 326.2 165.53 326.2L174.67 317.1" stroke="#465156" stroke-width="10" stroke-linecap="round" stroke-linejoin="round"/>
<path d="M175.41 117.51C177.928 117.51 179.97 115.468 179.97 112.95C179.97 110.432 177.928 108.39 175.41 108.39C172.891 108.39 170.85 110.432 170.85 112.95C170.85 115.468 172.891 117.51 175.41 117.51Z" fill="#465156"/>
<path d="M169.53 164.08C172.048 164.08 174.09 162.038 174.09 159.52C174.09 157.002 172.048 154.96 169.53 154.96C167.012 154.96 164.97 157.002 164.97 159.52C164.97 162.038 167.012 164.08 169.53 164.08Z" fill="#465156"/>
<path d="M166.66 208.46C169.178 208.46 171.22 206.418 171.22 203.9C171.22 201.382 169.178 199.34 166.66 199.34C164.141 199.34 162.1 201.382 162.1 203.9C162.1 206.418 164.141 208.46 166.66 208.46Z" fill="#465156"/>
<path d="M163.72 260.64C166.238 260.64 168.28 258.598 168.28 256.08C168.28 253.562 166.238 251.52 163.72 251.52C161.201 251.52 159.16 253.562 159.16 256.08C159.16 258.598 161.201 260.64 163.72 260.64Z" fill="#465156"/>
<path d="M323.1 240.8C321.37 227.66 305.1 173.8 296.1 154.8" stroke="#465156" stroke-width="10" stroke-linecap="round" stroke-linejoin="round"/>
<path d="M301.1 256.8L306.1 185.8" stroke="#465156" stroke-width="10" stroke-linecap="round" stroke-linejoin="round"/>
<path d="M213.1 137.8V162.8L241.1 171.8L274.1 163.8" stroke="#465156" stroke-width="10" stroke-linecap="round" stroke-linejoin="round"/>
<path d="M284.1 180.8L277.1 265.8L210.1 267.8L284.1 180.8Z" fill="#EBEBEB"/>
</g>
<defs>
<clipPath id="clip0_2_393">
<rect width="398.91" height="351.72" fill="white"/>
</clipPath>
</defs>
</svg>
