<svg xmlns="http://www.w3.org/2000/svg" xmlns:xlink="http://www.w3.org/1999/xlink" width="60" height="60" viewBox="0 0 60 60">
  <defs>
    <clipPath id="clip-icon_pass">
      <rect width="60" height="60"/>
    </clipPath>
  </defs>
  <g id="icon_pass" clip-path="url(#clip-icon_pass)">
    <rect width="60" height="60" fill="#fff"/>
    <g id="delivery-man" transform="translate(4 -42.575)">
      <path id="パス_417" data-name="パス 417" d="M18.014,148.082l-4.164-.064a.853.853,0,0,1-.778-.676l-.953-6.059a1.348,1.348,0,0,0-.4-.811,1.82,1.82,0,0,0-1.569-.778l-5.258.229a1.937,1.937,0,0,0-1.834,1.916l0,12.6c0,.03,0,.06,0,.09s0,.03,0,.045c0,.665-.039,1.771-.078,2.467l-.171,3.027a7.858,7.858,0,0,1-.54,2.245L.151,167.128a1.664,1.664,0,0,0,.009,1.408,1.665,1.665,0,0,0,1.107.87l.2.05a1.99,1.99,0,0,0,.479.058,2.242,2.242,0,0,0,1.988-1.206l1.989-4.054a14.624,14.624,0,0,0,.905-2.513l1.128-4.7,2.74,4.19a5.9,5.9,0,0,1,.752,2.089l.527,4.672a2.058,2.058,0,0,0,2,1.783h.3A1.724,1.724,0,0,0,16,167.86l-.562-5.667a11.957,11.957,0,0,0-.619-2.618l-2.643-6.9-.015-1.361,6.005-.222a1.834,1.834,0,0,0,1.307-.578,1.316,1.316,0,0,0,.343-.983A1.743,1.743,0,0,0,18.014,148.082ZM13.975,169.2Z" transform="translate(0 -76.754)" fill="#cbcbcb"/>
      <path id="パス_418" data-name="パス 418" d="M21.6,61.809a4.487,4.487,0,0,0,4.471-4.836l1.131-.128a2.02,2.02,0,0,0,1.57-1.233l.356-.971a1.115,1.115,0,0,0-.1-1.035,1.069,1.069,0,0,0-.9-.437c-.044,0-.089,0-.135.007l-3.973.378A4.483,4.483,0,1,0,21.6,61.809Z" transform="translate(-15.124)" fill="#cbcbcb"/>
      <path id="パス_419" data-name="パス 419" d="M128.134,124.858a1.855,1.855,0,0,0-1.825-1.7l-7.5.013a1.656,1.656,0,0,0-1.661,1.784l.381,5.475a1.854,1.854,0,0,0,1.822,1.7l7.5-.013a1.656,1.656,0,0,0,1.661-1.784Zm-8.785,6.69Z" transform="translate(-103.52 -62.143)" fill="#cbcbcb"/>
      <path id="パス_420" data-name="パス 420" d="M332.3,71.051a4.719,4.719,0,1,0-4.719-4.719A4.724,4.724,0,0,0,332.3,71.051Z" transform="translate(-289.49 -7.754)" fill="#cbcbcb"/>
      <path id="パス_421" data-name="パス 421" d="M254.185,158.142l-3.232-4.5a3.1,3.1,0,0,0-2.617-1.187h-7.8a5.356,5.356,0,0,0-2.069.59l-2.481,1.26a2.342,2.342,0,0,1-.983.195,2.016,2.016,0,0,1-.676-.1l-4.015-1.5a1.6,1.6,0,0,0-.561-.105,1.318,1.318,0,0,0-1.314,1.406v.3a2.385,2.385,0,0,0,1.47,2.112l4.073,1.506a4.03,4.03,0,0,0,1.352.211h0a3.944,3.944,0,0,0,1.228-.178l3.161-1.077V179.2a2.1,2.1,0,0,0,2.093,2.093h.49A2.1,2.1,0,0,0,244.4,179.2V168.181h.573V179.2a2.1,2.1,0,0,0,2.093,2.093h.49a2.1,2.1,0,0,0,2.093-2.093v-13.39a2.964,2.964,0,0,0,2.114-1.236l2.486-3.854A2.435,2.435,0,0,0,254.185,158.142Zm-4.535-.538,1.086,1.558a1.2,1.2,0,0,1,0,1.234l-1.081,1.526Z" transform="translate(-201.875 -88.03)" fill="#cbcbcb"/>
    </g>
  </g>
</svg>
