<svg xmlns="http://www.w3.org/2000/svg" xmlns:xlink="http://www.w3.org/1999/xlink" width="60" height="60" viewBox="0 0 60 60">
  <defs>
    <clipPath id="clip-icon_port">
      <rect width="60" height="60"/>
    </clipPath>
  </defs>
  <g id="icon_port" clip-path="url(#clip-icon_port)">
    <rect width="60" height="60" fill="#fff"/>
    <g id="グループ_7444" data-name="グループ 7444" transform="translate(0 1)">
      <rect id="長方形_1090" data-name="長方形 1090" width="54" height="50" rx="2" transform="translate(3 4)" fill="#cbcbcb"/>
      <rect id="長方形_1434" data-name="長方形 1434" width="46" height="10" rx="2" transform="translate(7 18)" fill="#fff"/>
      <rect id="長方形_1437" data-name="長方形 1437" width="22" height="10" rx="2" transform="translate(31 42)" fill="#fff"/>
      <g id="グループ_7441" data-name="グループ 7441">
        <rect id="長方形_1430" data-name="長方形 1430" width="10" height="10" rx="2" transform="translate(7 6)" fill="#fff"/>
        <rect id="長方形_1431" data-name="長方形 1431" width="10" height="10" rx="2" transform="translate(19 6)" fill="#fff"/>
        <rect id="長方形_1432" data-name="長方形 1432" width="10" height="10" rx="2" transform="translate(31 6)" fill="#fff"/>
        <rect id="長方形_1433" data-name="長方形 1433" width="10" height="10" rx="2" transform="translate(43 6)" fill="#fff"/>
      </g>
      <g id="グループ_7442" data-name="グループ 7442" transform="translate(0 24)">
        <rect id="長方形_1430-2" data-name="長方形 1430" width="10" height="10" rx="2" transform="translate(7 6)" fill="#fff"/>
        <rect id="長方形_1431-2" data-name="長方形 1431" width="10" height="10" rx="2" transform="translate(19 6)" fill="#fff"/>
        <rect id="長方形_1432-2" data-name="長方形 1432" width="10" height="10" rx="2" transform="translate(31 6)" fill="#fff"/>
        <rect id="長方形_1433-2" data-name="長方形 1433" width="10" height="10" rx="2" transform="translate(43 6)" fill="#fff"/>
      </g>
      <g id="グループ_7443" data-name="グループ 7443" transform="translate(-15015 -1871)">
        <rect id="長方形_1430-3" data-name="長方形 1430" width="10" height="10" rx="2" transform="translate(15022 1913)" fill="#fff"/>
        <rect id="長方形_1431-3" data-name="長方形 1431" width="10" height="10" rx="2" transform="translate(15034 1913)" fill="#fff"/>
      </g>
    </g>
  </g>
</svg>
